<svg width="64" height="64" viewBox="0 0 64 64" fill="none" xmlns="http://www.w3.org/2000/svg">
<rect width="64" height="64" rx="8" fill="#145FF0"/>
<path d="M49.0406 23.6875L42.6875 14.1875H21.3125L14.9594 23.6875H49.0406Z" fill="white"/>
<path d="M14.1875 26.0625V49.8125H49.8125V26.0625H14.1875ZM37.9375 35.5625H26.0625C25.4326 35.5625 24.8285 35.3123 24.3831 34.8669C23.9377 34.4215 23.6875 33.8174 23.6875 33.1875C23.6875 32.5576 23.9377 31.9535 24.3831 31.5081C24.8285 31.0627 25.4326 30.8125 26.0625 30.8125H37.9375C38.5674 30.8125 39.1715 31.0627 39.6169 31.5081C40.0623 31.9535 40.3125 32.5576 40.3125 33.1875C40.3125 33.8174 40.0623 34.4215 39.6169 34.8669C39.1715 35.3123 38.5674 35.5625 37.9375 35.5625Z" fill="white"/>
</svg>
