<svg width="244" height="244" viewBox="0 0 244 244" fill="none" xmlns="http://www.w3.org/2000/svg">
<g filter="url(#filter0_d_2_253)">
<rect x="80" y="65" width="64" height="64" rx="8" fill="#FF6845"/>
</g>
<g clip-path="url(#clip0_2_253)">
<path d="M121.5 94.625H120.906V86.9062C120.906 84.5442 119.968 82.2788 118.298 80.6086C116.627 78.9383 114.362 78 112 78C109.638 78 107.373 78.9383 105.702 80.6086C104.032 82.2788 103.094 84.5442 103.094 86.9062V94.625H102.5C101.24 94.625 100.032 95.1254 99.1412 96.0162C98.2504 96.907 97.75 98.1152 97.75 99.375V111.25C97.75 112.51 98.2504 113.718 99.1412 114.609C100.032 115.5 101.24 116 102.5 116H121.5C122.76 116 123.968 115.5 124.859 114.609C125.75 113.718 126.25 112.51 126.25 111.25V99.375C126.25 98.1152 125.75 96.907 124.859 96.0162C123.968 95.1254 122.76 94.625 121.5 94.625V94.625ZM105.469 86.9062C105.469 85.1741 106.157 83.5128 107.382 82.288C108.607 81.0631 110.268 80.375 112 80.375C113.732 80.375 115.393 81.0631 116.618 82.288C117.843 83.5128 118.531 85.1741 118.531 86.9062V94.625H105.469V86.9062ZM113.188 108.281C113.188 108.596 113.062 108.898 112.84 109.121C112.617 109.344 112.315 109.469 112 109.469C111.685 109.469 111.383 109.344 111.16 109.121C110.938 108.898 110.812 108.596 110.812 108.281V102.344C110.812 102.029 110.938 101.727 111.16 101.504C111.383 101.281 111.685 101.156 112 101.156C112.315 101.156 112.617 101.281 112.84 101.504C113.062 101.727 113.188 102.029 113.188 102.344V108.281Z" fill="white"/>
</g>
<defs>
<filter id="filter0_d_2_253" x="0" y="0" width="244" height="244" filterUnits="userSpaceOnUse" color-interpolation-filters="sRGB">
<feFlood flood-opacity="0" result="BackgroundImageFix"/>
<feColorMatrix in="SourceAlpha" type="matrix" values="0 0 0 0 0 0 0 0 0 0 0 0 0 0 0 0 0 0 127 0" result="hardAlpha"/>
<feOffset dx="10" dy="25"/>
<feGaussianBlur stdDeviation="45"/>
<feColorMatrix type="matrix" values="0 0 0 0 0.52549 0 0 0 0 0.486275 0 0 0 0 0.976471 0 0 0 0.2 0"/>
<feBlend mode="normal" in2="BackgroundImageFix" result="effect1_dropShadow_2_253"/>
<feBlend mode="normal" in="SourceGraphic" in2="effect1_dropShadow_2_253" result="shape"/>
</filter>
<clipPath id="clip0_2_253">
<rect width="38" height="38" fill="white" transform="translate(93 78)"/>
</clipPath>
</defs>
</svg>
